<svg xmlns="http://www.w3.org/2000/svg" viewBox="0 0 500 400" fill="none">
  <path fill="#E6F2FF" d="M0 0h500v400H0z"/>
  
  <path fill="#4A90E2" d="M250 200c50.42 0 91.36-40.94 91.36-91.36S300.42 17.28 250 17.28s-91.36 40.94-91.36 91.36S199.58 200 250 200z"/>
  
  <path fill="#FFD5A5" d="M200 250c-55.23 0-100 44.77-100 100v50h200v-50c0-55.23-44.77-100-100-100z"/>
  
  <path fill="#FFB74D" d="M250 250c-55.23 0-100 44.77-100 100v50h200v-50c0-55.23-44.77-100-100-100z"/>
  
  <path fill="#4A90E2" d="M250 275c-30.65 0-55.56 24.91-55.56 55.56v19.44h111.12v-19.44c0-30.65-24.91-55.56-55.56-55.56z"/>
  
  <path fill="#FFD5A5" d="M250 225c-27.61 0-50-22.39-50-50s22.39-50 50-50 50 22.39 50 50-22.39 50-50 50z"/>
  
  <path fill="#333" d="M250 150c-13.81 0-25 11.19-25 25s11.19 25 25 25 25-11.19 25-25-11.19-25-25-25z"/>
  
  <path fill="#FFB74D" d="M300 350v-50c0-27.61-22.39-50-50-50s-50 22.39-50 50v50h100z"/>
</svg>
